<svg width="1918" height="138" viewBox="0 0 1918 138" fill="none" xmlns="http://www.w3.org/2000/svg">
<path d="M361.5 137L442 0.5H361.5L300.5 137H361.5Z" fill="black" fill-opacity="0.05"/>
<path d="M215.5 137L300.5 0.5H271L143 137H215.5Z" fill="black" fill-opacity="0.05"/>
<path d="M54 0.5H175L69.5 137H0L54 0.5Z" fill="black" fill-opacity="0.05"/>
<path d="M578 0.5L402 138H448.5L629 0.5H578Z" fill="black" fill-opacity="0.05"/>
<path d="M545 138L686.5 0.5H702.5L602 138H545Z" fill="black" fill-opacity="0.05"/>
<path d="M762.5 0.5L686.5 138H702.5L808 0.5H762.5Z" fill="black" fill-opacity="0.05"/>
<path d="M854.5 0.5L808 138H854.5L894.5 0.5H854.5Z" fill="black" fill-opacity="0.05"/>
<path d="M888 135.5L949.5 0.5H1103L943 138L888 135.5Z" fill="black" fill-opacity="0.05"/>
<path d="M1048.5 135.5L1129.5 0.5H1210L1169.75 68L1129.5 135.5H1048.5Z" fill="black" fill-opacity="0.05"/>
<path d="M1271.5 0.5L1210 135.5H1243L1487.5 0.5H1271.5Z" fill="black" fill-opacity="0.05"/>
<path d="M1569 0.5L1451.5 135.5H1523.5L1654.5 0.5H1569Z" fill="black" fill-opacity="0.05"/>
<path d="M1718.5 0.5L1654.5 135.5H1718.5L1768 0.5H1718.5Z" fill="black" fill-opacity="0.05"/>
<path d="M1873.5 0.5L1796 135.5H1873.5L1949.5 0.5H1873.5Z" fill="black" fill-opacity="0.05"/>
</svg>
